<mxfile host="app.diagrams.net" modified="2024-03-22T15:13:16.768Z" agent="Mozilla/5.0 (X11; Linux x86_64; rv:123.0) Gecko/20100101 Firefox/123.0" version="24.0.8" etag="SaFVB6-lkukP2dvC9KYu" type="github">
  <diagram name="Page-1" id="zngCL8ReXMiAivFyyCNr">
    <mxGraphModel>
      <root>
        <mxCell id="0" />
        <mxCell id="1" parent="0" />
      </root>
    </mxGraphModel>
  </diagram>
</mxfile>
